<?xml version="1.0" encoding="UTF-8"?>
<svg xmlns="http://www.w3.org/2000/svg" width="512" height="512" viewBox="0 0 512 512">
  <defs>
    <linearGradient id="accent" x1="0" y1="0" x2="1" y2="1">
      <stop offset="0" stop-color="#00bcd4"/>
      <stop offset="1" stop-color="#2fa4e7"/>
    </linearGradient>
    <filter id="softShadow" x="-20%" y="-20%" width="140%" height="140%">
      <feDropShadow dx="0" dy="10" stdDeviation="12" flood-color="#000000" flood-opacity="0.35"/>
    </filter>
  </defs>

  <!-- Background -->
  <rect x="32" y="32" width="448" height="448" rx="88" fill="#0b1220"/>
  <rect x="32" y="32" width="448" height="448" rx="88" fill="none" stroke="#13233a" stroke-width="10"/>

  <!-- Map container -->
  <g filter="url(#softShadow)">
    <rect x="104" y="116" width="304" height="280" rx="36" fill="#0f1a2d" stroke="#1b2f4d" stroke-width="6"/>
  </g>

  <!-- Grid lanes (subtle) -->
  <g opacity="0.35" stroke="#1b2f4d" stroke-width="4">
    <line x1="104" y1="210" x2="408" y2="210"/>
    <line x1="104" y1="302" x2="408" y2="302"/>
    <line x1="206" y1="116" x2="206" y2="396"/>
    <line x1="306" y1="116" x2="306" y2="396"/>
  </g>

  <!-- Capability cards (3x3) -->
  <g>
    <!-- helper: card -->
    <!-- Row 1 -->
    <g>
      <rect x="124" y="136" width="72" height="56" rx="14" fill="#0b1220" stroke="#223b5e" stroke-width="4"/>
      <rect x="124" y="136" width="8" height="56" rx="4" fill="url(#accent)"/>
      <rect x="144" y="150" width="44" height="6" rx="3" fill="#1b2f4d"/>
      <rect x="144" y="164" width="34" height="6" rx="3" fill="#1b2f4d" opacity="0.8"/>
    </g>
    <g>
      <rect x="220" y="136" width="72" height="56" rx="14" fill="#0b1220" stroke="#223b5e" stroke-width="4"/>
      <rect x="220" y="136" width="8" height="56" rx="4" fill="url(#accent)"/>
      <rect x="240" y="150" width="44" height="6" rx="3" fill="#1b2f4d"/>
      <rect x="240" y="164" width="34" height="6" rx="3" fill="#1b2f4d" opacity="0.8"/>
    </g>
    <g>
      <rect x="316" y="136" width="72" height="56" rx="14" fill="#0b1220" stroke="#223b5e" stroke-width="4"/>
      <rect x="316" y="136" width="8" height="56" rx="4" fill="url(#accent)"/>
      <rect x="336" y="150" width="44" height="6" rx="3" fill="#1b2f4d"/>
      <rect x="336" y="164" width="34" height="6" rx="3" fill="#1b2f4d" opacity="0.8"/>
    </g>

    <!-- Row 2 -->
    <g>
      <rect x="124" y="228" width="72" height="56" rx="14" fill="#0b1220" stroke="#223b5e" stroke-width="4"/>
      <rect x="124" y="228" width="8" height="56" rx="4" fill="url(#accent)"/>
      <rect x="144" y="242" width="44" height="6" rx="3" fill="#1b2f4d"/>
      <rect x="144" y="256" width="34" height="6" rx="3" fill="#1b2f4d" opacity="0.8"/>
    </g>
    <g>
      <rect x="220" y="228" width="72" height="56" rx="14" fill="#0b1220" stroke="#223b5e" stroke-width="4"/>
      <rect x="220" y="228" width="8" height="56" rx="4" fill="url(#accent)"/>
      <rect x="240" y="242" width="44" height="6" rx="3" fill="#1b2f4d"/>
      <rect x="240" y="256" width="34" height="6" rx="3" fill="#1b2f4d" opacity="0.8"/>
    </g>
    <g>
      <rect x="316" y="228" width="72" height="56" rx="14" fill="#0b1220" stroke="#223b5e" stroke-width="4"/>
      <rect x="316" y="228" width="8" height="56" rx="4" fill="url(#accent)"/>
      <rect x="336" y="242" width="44" height="6" rx="3" fill="#1b2f4d"/>
      <rect x="336" y="256" width="34" height="6" rx="3" fill="#1b2f4d" opacity="0.8"/>
    </g>

    <!-- Row 3 -->
    <g>
      <rect x="124" y="320" width="72" height="56" rx="14" fill="#0b1220" stroke="#223b5e" stroke-width="4"/>
      <rect x="124" y="320" width="8" height="56" rx="4" fill="url(#accent)"/>
      <rect x="144" y="334" width="44" height="6" rx="3" fill="#1b2f4d"/>
      <rect x="144" y="348" width="34" height="6" rx="3" fill="#1b2f4d" opacity="0.8"/>
    </g>
    <g>
      <rect x="220" y="320" width="72" height="56" rx="14" fill="#0b1220" stroke="#223b5e" stroke-width="4"/>
      <rect x="220" y="320" width="8" height="56" rx="4" fill="url(#accent)"/>
      <rect x="240" y="334" width="44" height="6" rx="3" fill="#1b2f4d"/>
      <rect x="240" y="348" width="34" height="6" rx="3" fill="#1b2f4d" opacity="0.8"/>
    </g>
    <g>
      <rect x="316" y="320" width="72" height="56" rx="14" fill="#0b1220" stroke="#223b5e" stroke-width="4"/>
      <rect x="316" y="320" width="8" height="56" rx="4" fill="url(#accent)"/>
      <rect x="336" y="334" width="44" height="6" rx="3" fill="#1b2f4d"/>
      <rect x="336" y="348" width="34" height="6" rx="3" fill="#1b2f4d" opacity="0.8"/>
    </g>
  </g>

  <!-- Top-left tiny 'map pin' hint (capability navigation) -->
  <g transform="translate(104 116)">
    <path d="M32 28c0-11 9-20 20-20s20 9 20 20c0 14-20 40-20 40S32 42 32 28z" fill="url(#accent)" opacity="0.9"/>
    <circle cx="52" cy="28" r="7" fill="#0b1220" opacity="0.95"/>
  </g>
</svg>
